<svg width="379" height="85" viewBox="0 0 379 85" fill="none" xmlns="http://www.w3.org/2000/svg">
<path d="M37.8906 41.3984C38.6562 41.8516 39.4531 42.2578 40.2812 42.6172C41.125 42.9766 42.0469 43.1562 43.0469 43.1562C43.6562 43.1562 44.2422 43.0703 44.8047 42.8984C45.3672 42.7266 45.8594 42.4609 46.2812 42.1016C46.7031 41.7422 47.0391 41.2891 47.2891 40.7422C47.5391 40.1797 47.6641 39.5156 47.6641 38.75C47.6641 38.2344 47.5938 37.7031 47.4531 37.1562C47.3281 36.6094 47.1094 36.0234 46.7969 35.3984C46.5 34.7578 46.1016 34.0625 45.6016 33.3125C45.1172 32.5625 44.5078 31.7266 43.7734 30.8047L40.75 26.9844C40 26.0312 39.3594 25.125 38.8281 24.2656C38.3125 23.4062 37.8906 22.5859 37.5625 21.8047C37.2344 21.0078 36.9922 20.25 36.8359 19.5312C36.6953 18.7969 36.625 18.0781 36.625 17.375C36.625 16.2031 36.8125 15.125 37.1875 14.1406C37.5625 13.1406 38.1094 12.2813 38.8281 11.5625C39.5469 10.8281 40.4141 10.2578 41.4297 9.85156C42.4609 9.44531 43.625 9.24219 44.9219 9.24219C45.9531 9.24219 46.9922 9.38281 48.0391 9.66406C49.0859 9.92969 50.1094 10.3594 51.1094 10.9531L49.2344 14.5859C48.6875 14.2578 48.0938 13.9766 47.4531 13.7422C46.8281 13.4922 46.1328 13.3672 45.3672 13.3672C44.0859 13.3672 43.0625 13.7344 42.2969 14.4688C41.5312 15.1875 41.1484 16.2109 41.1484 17.5391C41.1484 17.8984 41.1875 18.2734 41.2656 18.6641C41.3438 19.0391 41.4766 19.4531 41.6641 19.9062C41.8672 20.3594 42.1328 20.8594 42.4609 21.4062C42.8047 21.9531 43.2344 22.5703 43.75 23.2578L48.1328 29.0234C48.6953 29.7734 49.2266 30.5078 49.7266 31.2266C50.2266 31.9297 50.6562 32.6562 51.0156 33.4062C51.375 34.1406 51.6562 34.9219 51.8594 35.75C52.0781 36.5625 52.1875 37.4453 52.1875 38.3984C52.1875 39.8047 51.9609 41.0703 51.5078 42.1953C51.0547 43.3047 50.4219 44.25 49.6094 45.0312C48.7969 45.8125 47.8281 46.4141 46.7031 46.8359C45.5938 47.2422 44.375 47.4453 43.0469 47.4453C41.6719 47.4453 40.3594 47.2422 39.1094 46.8359C37.8594 46.4297 36.7812 45.9141 35.875 45.2891L37.8906 41.3984ZM65.5469 8.51562L76.3984 47H71.7109L70.0703 40.7891H61L59.3828 47H54.6953L65.5469 8.51562ZM68.9922 36.6641L66.4844 27.0312L65.5234 22.5781L64.6094 27.0312L62.0781 36.6641H68.9922ZM81.0625 8.23438L92.8047 27.8047L95.3828 32.3516L95.2656 27.875V9.66406H99.6016V47.7969L87.8359 28.3438L85.2812 24.2656L85.4219 28.3438V47H81.0625V8.23438ZM115.047 8.51562L125.898 47H121.211L119.57 40.7891H110.5L108.883 47H104.195L115.047 8.51562ZM118.492 36.6641L115.984 27.0312L115.023 22.5781L114.109 27.0312L111.578 36.6641H118.492ZM130.469 41.3984C131.234 41.8516 132.031 42.2578 132.859 42.6172C133.703 42.9766 134.625 43.1562 135.625 43.1562C136.234 43.1562 136.82 43.0703 137.383 42.8984C137.945 42.7266 138.438 42.4609 138.859 42.1016C139.281 41.7422 139.617 41.2891 139.867 40.7422C140.117 40.1797 140.242 39.5156 140.242 38.75C140.242 38.2344 140.172 37.7031 140.031 37.1562C139.906 36.6094 139.688 36.0234 139.375 35.3984C139.078 34.7578 138.68 34.0625 138.18 33.3125C137.695 32.5625 137.086 31.7266 136.352 30.8047L133.328 26.9844C132.578 26.0312 131.938 25.125 131.406 24.2656C130.891 23.4062 130.469 22.5859 130.141 21.8047C129.812 21.0078 129.57 20.25 129.414 19.5312C129.273 18.7969 129.203 18.0781 129.203 17.375C129.203 16.2031 129.391 15.125 129.766 14.1406C130.141 13.1406 130.688 12.2813 131.406 11.5625C132.125 10.8281 132.992 10.2578 134.008 9.85156C135.039 9.44531 136.203 9.24219 137.5 9.24219C138.531 9.24219 139.57 9.38281 140.617 9.66406C141.664 9.92969 142.688 10.3594 143.688 10.9531L141.812 14.5859C141.266 14.2578 140.672 13.9766 140.031 13.7422C139.406 13.4922 138.711 13.3672 137.945 13.3672C136.664 13.3672 135.641 13.7344 134.875 14.4688C134.109 15.1875 133.727 16.2109 133.727 17.5391C133.727 17.8984 133.766 18.2734 133.844 18.6641C133.922 19.0391 134.055 19.4531 134.242 19.9062C134.445 20.3594 134.711 20.8594 135.039 21.4062C135.383 21.9531 135.812 22.5703 136.328 23.2578L140.711 29.0234C141.273 29.7734 141.805 30.5078 142.305 31.2266C142.805 31.9297 143.234 32.6562 143.594 33.4062C143.953 34.1406 144.234 34.9219 144.438 35.75C144.656 36.5625 144.766 37.4453 144.766 38.3984C144.766 39.8047 144.539 41.0703 144.086 42.1953C143.633 43.3047 143 44.25 142.188 45.0312C141.375 45.8125 140.406 46.4141 139.281 46.8359C138.172 47.2422 136.953 47.4453 135.625 47.4453C134.25 47.4453 132.938 47.2422 131.688 46.8359C130.438 46.4297 129.359 45.9141 128.453 45.2891L130.469 41.3984ZM158.125 8.51562L168.977 47H164.289L162.648 40.7891H153.578L151.961 47H147.273L158.125 8.51562ZM161.57 36.6641L159.062 27.0312L158.102 22.5781L157.188 27.0312L154.656 36.6641H161.57ZM173.594 9.66406H177.953V36.0781C177.953 37.375 178.047 38.4766 178.234 39.3828C178.438 40.2734 178.727 41 179.102 41.5625C179.492 42.1094 179.961 42.5078 180.508 42.7578C181.055 43.0078 181.68 43.1328 182.383 43.1328C183.086 43.1328 183.711 43.0078 184.258 42.7578C184.805 42.5078 185.266 42.1094 185.641 41.5625C186.031 41 186.32 40.2734 186.508 39.3828C186.711 38.4766 186.812 37.375 186.812 36.0781V9.66406H191.172V36.6172C191.172 38.5078 190.969 40.1328 190.562 41.4922C190.172 42.8516 189.594 43.9766 188.828 44.8672C188.078 45.7422 187.156 46.3906 186.062 46.8125C184.984 47.2344 183.758 47.4453 182.383 47.4453C181.008 47.4453 179.773 47.2344 178.68 46.8125C177.602 46.3906 176.68 45.7422 175.914 44.8672C175.164 43.9766 174.586 42.8516 174.18 41.4922C173.789 40.1328 173.594 38.5078 173.594 36.6172V9.66406ZM199.141 8.23438L210.883 27.8047L213.461 32.3516L213.344 27.875V9.66406H217.68V47.7969L205.914 28.3438L203.359 24.2656L203.5 28.3438V47H199.141V8.23438ZM233.125 8.51562L243.977 47H239.289L237.648 40.7891H228.578L226.961 47H222.273L233.125 8.51562ZM236.57 36.6641L234.062 27.0312L233.102 22.5781L232.188 27.0312L229.656 36.6641H236.57Z" fill="white"/>
<circle cx="12" cy="35" r="12" fill="#C7FF51"/>
<path d="M11.7647 8L0 32H24L11.7647 8Z" fill="#C7FF51"/>
</svg>
