<?xml version="1.0" encoding="utf-8"?>
<!-- Generator: Adobe Illustrator 26.5.0, SVG Export Plug-In . SVG Version: 6.00 Build 0)  -->
<svg version="1.1" xmlns="http://www.w3.org/2000/svg" xmlns:xlink="http://www.w3.org/1999/xlink" x="0px" y="0px"
	 viewBox="0 0 245.6 45.9" style="enable-background:new 0 0 245.6 45.9;" xml:space="preserve">
<style type="text/css">
	.st0{display:none;}
	.st1{display:inline;fill:#DCC0FF;stroke:#000000;stroke-miterlimit:10;}
	.st2{fill:#FFFFFF;}
	.st3{fill:#BCE8D3;}
</style>
<g id="Layer_2" class="st0">
	<rect x="-7" y="-7.2" class="st1" width="407" height="104"/>
</g>
<g id="Layer_1">
	<path class="st2" d="M35.9,35.4c0.8,0.5,1.6,0.9,2.4,1.2c0.8,0.4,1.8,0.5,2.8,0.5c0.6,0,1.2-0.1,1.8-0.3c0.6-0.2,1.1-0.4,1.5-0.8
		c0.4-0.4,0.8-0.8,1-1.4c0.2-0.6,0.4-1.2,0.4-2c0-0.5-0.1-1-0.2-1.6c-0.1-0.5-0.3-1.1-0.7-1.8c-0.3-0.6-0.7-1.3-1.2-2.1
		c-0.5-0.8-1.1-1.6-1.8-2.5l-3-3.8c-0.8-1-1.4-1.9-1.9-2.7c-0.5-0.9-0.9-1.7-1.3-2.5c-0.3-0.8-0.6-1.6-0.7-2.3
		c-0.1-0.7-0.2-1.5-0.2-2.2c0-1.2,0.2-2.2,0.6-3.2c0.4-1,0.9-1.9,1.6-2.6c0.7-0.7,1.6-1.3,2.6-1.7c1-0.4,2.2-0.6,3.5-0.6
		c1,0,2.1,0.1,3.1,0.4c1,0.3,2.1,0.7,3.1,1.3l-1.9,3.6c-0.5-0.3-1.1-0.6-1.8-0.8c-0.6-0.2-1.3-0.4-2.1-0.4c-1.3,0-2.3,0.4-3.1,1.1
		c-0.8,0.7-1.1,1.7-1.1,3.1c0,0.4,0,0.7,0.1,1.1c0.1,0.4,0.2,0.8,0.4,1.2c0.2,0.5,0.5,1,0.8,1.5c0.3,0.5,0.8,1.2,1.3,1.9l4.4,5.8
		c0.6,0.8,1.1,1.5,1.6,2.2c0.5,0.7,0.9,1.4,1.3,2.2c0.4,0.7,0.6,1.5,0.8,2.3c0.2,0.8,0.3,1.7,0.3,2.6c0,1.4-0.2,2.7-0.7,3.8
		c-0.5,1.1-1.1,2.1-1.9,2.8c-0.8,0.8-1.8,1.4-2.9,1.8c-1.1,0.4-2.3,0.6-3.7,0.6c-1.4,0-2.7-0.2-3.9-0.6c-1.2-0.4-2.3-0.9-3.2-1.5
		L35.9,35.4z M63.5,2.5L74.4,41h-4.7l-1.6-6.2H59L57.4,41h-4.7L63.5,2.5z M67,30.7L64.5,21l-1-4.5L62.6,21l-2.5,9.6H67z M79.1,2.2
		l11.7,19.6l2.6,4.5l-0.1-4.5V3.7h4.3v38.1L85.8,22.3l-2.6-4.1l0.1,4.1V41h-4.4V2.2z M113,2.5L123.9,41h-4.7l-1.6-6.2h-9.1l-1.6,6.2
		h-4.7L113,2.5z M116.5,30.7L114,21l-1-4.5l-0.9,4.5l-2.5,9.6H116.5z M128.5,35.4c0.8,0.5,1.6,0.9,2.4,1.2c0.8,0.4,1.8,0.5,2.8,0.5
		c0.6,0,1.2-0.1,1.8-0.3c0.6-0.2,1.1-0.4,1.5-0.8c0.4-0.4,0.8-0.8,1-1.4c0.2-0.6,0.4-1.2,0.4-2c0-0.5-0.1-1-0.2-1.6
		c-0.1-0.5-0.3-1.1-0.7-1.8c-0.3-0.6-0.7-1.3-1.2-2.1c-0.5-0.8-1.1-1.6-1.8-2.5l-3-3.8c-0.8-1-1.4-1.9-1.9-2.7
		c-0.5-0.9-0.9-1.7-1.3-2.5c-0.3-0.8-0.6-1.6-0.7-2.3c-0.1-0.7-0.2-1.5-0.2-2.2c0-1.2,0.2-2.2,0.6-3.2c0.4-1,0.9-1.9,1.6-2.6
		c0.7-0.7,1.6-1.3,2.6-1.7c1-0.4,2.2-0.6,3.5-0.6c1,0,2.1,0.1,3.1,0.4c1,0.3,2.1,0.7,3.1,1.3l-1.9,3.6c-0.5-0.3-1.1-0.6-1.8-0.8
		c-0.6-0.2-1.3-0.4-2.1-0.4c-1.3,0-2.3,0.4-3.1,1.1c-0.8,0.7-1.1,1.7-1.1,3.1c0,0.4,0,0.7,0.1,1.1c0.1,0.4,0.2,0.8,0.4,1.2
		c0.2,0.5,0.5,1,0.8,1.5c0.3,0.5,0.8,1.2,1.3,1.9l4.4,5.8c0.6,0.8,1.1,1.5,1.6,2.2c0.5,0.7,0.9,1.4,1.3,2.2c0.4,0.7,0.6,1.5,0.8,2.3
		c0.2,0.8,0.3,1.7,0.3,2.6c0,1.4-0.2,2.7-0.7,3.8c-0.5,1.1-1.1,2.1-1.9,2.8c-0.8,0.8-1.8,1.4-2.9,1.8c-1.1,0.4-2.3,0.6-3.7,0.6
		c-1.4,0-2.7-0.2-3.9-0.6c-1.2-0.4-2.3-0.9-3.2-1.5L128.5,35.4z M156.1,2.5L167,41h-4.7l-1.6-6.2h-9.1L150,41h-4.7L156.1,2.5z
		 M159.6,30.7l-2.5-9.6l-1-4.5l-0.9,4.5l-2.5,9.6H159.6z M171.6,3.7h4.4v26.4c0,1.3,0.1,2.4,0.3,3.3c0.2,0.9,0.5,1.6,0.9,2.2
		c0.4,0.5,0.9,0.9,1.4,1.2s1.2,0.4,1.9,0.4s1.3-0.1,1.9-0.4s1-0.6,1.4-1.2c0.4-0.6,0.7-1.3,0.9-2.2c0.2-0.9,0.3-2,0.3-3.3V3.7h4.4
		v27c0,1.9-0.2,3.5-0.6,4.9c-0.4,1.4-1,2.5-1.7,3.4c-0.8,0.9-1.7,1.5-2.8,1.9c-1.1,0.4-2.3,0.6-3.7,0.6s-2.6-0.2-3.7-0.6
		c-1.1-0.4-2-1.1-2.8-1.9c-0.8-0.9-1.3-2-1.7-3.4c-0.4-1.4-0.6-3-0.6-4.9V3.7z M197.1,2.2l11.7,19.6l2.6,4.5l-0.1-4.5V3.7h4.3v38.1
		l-11.8-19.5l-2.6-4.1l0.1,4.1V41h-4.4V2.2z M231.1,2.5L242,41h-4.7l-1.6-6.2h-9.1L225,41h-4.7L231.1,2.5z M234.6,30.7l-2.5-9.6
		l-1-4.5l-0.9,4.5l-2.5,9.6H234.6z"/>
	<path class="st3" d="M28.2,28.2C28.2,35.3,23,41,16.6,41S5.1,35.3,5.1,28.2c0-1.3,0.2-2.5,0.5-3.7c1.4-5.3,11-22.2,11-22.2
		s8.9,16.3,10.6,20.9C27.8,24.7,28.2,26.4,28.2,28.2z"/>
</g>
</svg>
